<?xml version="1.0" encoding="UTF-8"?><svg id="Layer_5" xmlns="http://www.w3.org/2000/svg" viewBox="0 0 80.4 81.31"><path d="m17.11,62.67h47.01c-.02-.43,0-.83-.06-1.21-1.49-8.79-6.28-15.03-14.45-18.64-.43-.19-.76-.19-1.19.06-6.32,3.62-14.07,2.51-19.16-2.73-4.97-5.11-5.85-13-2.14-19.15,3.36-5.57,10.14-8.6,16.4-7.34,6.7,1.35,11.71,6.54,12.68,13.18.67,4.6-.49,8.72-3.39,12.35-.12.15-.23.29-.35.45,1.37.84,2.79,1.58,4.06,2.51,7.58,5.55,11.5,13.03,11.69,22.44.03,1.34-.77,2.07-2.23,2.08-4.29.02-8.58.01-12.87.01-10.61,0-21.21,0-31.82,0-2,0-3.99.01-5.99,0-1.55,0-2.34-.75-2.3-2.28.21-8.14,3.33-14.96,9.38-20.42.94-.84,2.12-.78,2.88.08.77.86.68,2.03-.26,2.88-4.3,3.87-6.89,8.65-7.78,14.36-.04.27-.07.53-.1.8-.01.16,0,.32,0,.58Zm23.53-21.66c6.64-.08,11.85-5.37,11.78-11.96-.07-6.45-5.45-11.76-11.84-11.68-6.63.09-11.85,5.4-11.78,11.98.07,6.45,5.44,11.74,11.84,11.66Z" fill="#f6eeff"/><circle cx="40.21" cy="40.31" r="36.5" fill="none" stroke="#f6eeff" stroke-miterlimit="10" stroke-width="3"/></svg>