<?xml version="1.0" encoding="UTF-8"?><svg id="Layer_6" xmlns="http://www.w3.org/2000/svg" viewBox="0 0 79 81"><path d="m39.28,66.14c-10.19,0-20.39,0-30.58,0-3.18,0-5.01-1.79-5.03-4.97-.03-6.49-.06-12.97.04-19.46.02-1.34.51-2.72.99-4,2.52-6.75,5.12-13.46,7.68-20.2.87-2.3,2.37-3.37,4.83-3.37,14.46,0,28.92,0,43.39,0,.43,0,.86,0,1.29.02,2.11.1,3.55,1.13,4.3,3.1,2.8,7.31,5.6,14.63,8.35,21.96.32.85.45,1.81.46,2.72.04,6.39.04,12.77.01,19.16-.01,3.29-1.84,5.05-5.14,5.06-10.19,0-20.39,0-30.58,0h0Zm.02-2.54h0c10.29,0,20.59,0,30.88-.01,1.59,0,2.29-.7,2.3-2.31,0-6.52.01-13.04,0-19.56,0-.52-.07-1.07-.26-1.55-2.76-7.3-5.54-14.58-8.32-21.87-.48-1.24-1.08-1.62-2.42-1.62-2.05,0-4.1,0-6.16,0-12.68,0-25.36,0-38.03,0-1.54,0-2.05.41-2.58,1.81-2.01,5.28-4.07,10.54-6.03,15.84-1.2,3.25-2.72,6.37-2.56,10.07.25,5.62.06,11.25.07,16.88,0,1.55.77,2.3,2.32,2.32.36,0,.73,0,1.09,0,9.9,0,19.79,0,29.69,0Z" fill="#f2f2f2"/><path d="m39.31,63.61c-9.9,0-19.79,0-29.69,0-.36,0-.73,0-1.09,0-1.55-.02-2.32-.77-2.32-2.32,0-5.63.18-11.26-.07-16.88-.17-3.7,1.35-6.82,2.56-10.07,1.96-5.3,4.02-10.56,6.03-15.84.53-1.4,1.04-1.81,2.58-1.81,12.68,0,25.36,0,38.03,0,2.05,0,4.1,0,6.16,0,1.34,0,1.94.38,2.42,1.62,2.78,7.29,5.56,14.57,8.32,21.87.18.48.26,1.03.26,1.55.02,6.52.02,13.04,0,19.56,0,1.61-.7,2.31-2.3,2.31-10.29,0-20.59,0-30.88,0h0Zm0-17.91s0,0,0,0c4.17,0,8.34,0,12.51,0,1.27,0,1.64-.38,1.67-1.66.02-.73,0-1.46,0-2.18,0-1.88.68-2.58,2.56-2.59,3.08,0,6.15,0,9.23,0,1.62,0,2.12-.66,1.56-2.17-1.93-5.13-3.89-10.26-5.82-15.39-.32-.84-.89-1.11-1.77-1.1-5.99.02-11.98,0-17.96,0-7.25,0-14.49.01-21.74,0-.89,0-1.53.21-1.87,1.11-1.94,5.13-3.9,10.25-5.83,15.38-.55,1.46-.06,2.14,1.49,2.16,3.21.02,6.42,0,9.63.03,1.46,0,2.18.73,2.23,2.2.03.79.01,1.59.02,2.38,0,1.47.34,1.83,1.8,1.83,4.1,0,8.2,0,12.31,0Z" fill="#e6e6e6"/><path d="m39.31,45.69c-4.1,0-8.2,0-12.31,0-1.46,0-1.79-.36-1.8-1.83,0-.79.01-1.59-.02-2.38-.05-1.47-.77-2.19-2.23-2.2-3.21-.02-6.42,0-9.63-.03-1.55-.01-2.03-.7-1.49-2.16,1.93-5.13,3.9-10.25,5.83-15.38.34-.9.98-1.11,1.87-1.11,7.25.02,14.49,0,21.74,0,5.99,0,11.98.01,17.96,0,.87,0,1.45.26,1.77,1.1,1.93,5.13,3.89,10.25,5.82,15.39.57,1.51.06,2.17-1.56,2.17-3.08,0-6.15-.01-9.23,0-1.88,0-2.56.7-2.56,2.59,0,.73.02,1.46,0,2.18-.03,1.28-.41,1.66-1.67,1.66-4.17,0-8.34,0-12.51,0,0,0,0,0,0,0Zm11.69-2.57c0-.56-.03-1.05,0-1.54.04-.56.05-1.13.22-1.66.63-2.03,2.23-3.15,4.51-3.17,2.71-.03,5.42,0,8.17,0-.03-.21-.02-.34-.06-.46-1.6-4.2-3.22-8.39-4.8-12.6-.22-.59-.59-.6-1.07-.6-12.44,0-24.88,0-37.32-.02-.6,0-.86.2-1.07.75-1.2,3.22-2.44,6.42-3.66,9.63-.4,1.06-.8,2.13-1.23,3.3,3,0,5.84-.04,8.69.01,2.31.04,4.13,1.83,4.29,4.13.05.72,0,1.44,0,2.22h23.32Z" fill="#f2f2f2"/></svg>