<?xml version="1.0" encoding="UTF-8"?><svg id="Layer_1" xmlns="http://www.w3.org/2000/svg" viewBox="0 0 78.66 91.31"><path d="m39.23,75.04c-10.98,0-21.97-.05-32.95.05-2.01.02-2.73-.82-3.15-2.58-.69-2.92-.4-5.32,1.91-7.64,3.01-3.02,5.84-6.3,8.25-9.82,1.32-1.92,2.08-4.51,2.25-6.86.4-5.58.08-11.2.45-16.78.29-4.33,2.24-8.15,5.48-11.09,2.83-2.57,5.92-4.8,9.6-6.11.56-.2,1.09-1.11,1.21-1.78.2-1.14.02-2.34.09-3.51.21-3.51,3.3-6.47,6.8-6.57,3.63-.1,7.26,2.73,7.1,6.32-.17,3.86,1.21,5.45,4.71,7.15,7.98,3.88,12.43,10.53,12.21,19.82-.09,3.91.05,7.82-.03,11.73-.07,3.56,1.06,6.55,3.47,9.21,2.97,3.26,5.74,6.7,8.57,10.08,1.26,1.51,1.02,6.63-.47,7.91-.5.43-1.44.46-2.17.47-11.11.03-22.23.02-33.34.02Z" fill="none" stroke="#f6eeff" stroke-miterlimit="10"/><path d="m52.3,78.45c-1.44,6.08-6.89,9.8-13.45,9.55-6.13-.23-10.98-3.79-12.31-9.55h25.76Z" fill="none" stroke="#f6eeff" stroke-miterlimit="10"/></svg>