<?xml version="1.0" encoding="UTF-8"?><svg id="Layer_1" xmlns="http://www.w3.org/2000/svg" viewBox="0 0 78.66 91.31"><path d="m52.3,78.45c-1.44,6.08-6.89,9.8-13.45,9.55-6.13-.23-10.98-3.79-12.31-9.55h25.76Z" fill="none" stroke="#f6eeff" stroke-miterlimit="10"/><path d="m66.64,56.57c-2.41-2.66-3.54-5.64-3.47-9.21.02-.81.02-1.61.02-2.42-1.14.24-2.32.37-3.53.37-9.39,0-17-7.61-17-17,0-5.48,2.6-10.34,6.62-13.44-2.23-1.42-3.15-3.05-3.01-6.2.16-3.59-3.47-6.41-7.1-6.32-3.49.09-6.58,3.06-6.8,6.57-.07,1.17.12,2.37-.09,3.51-.12.66-.65,1.58-1.21,1.78-3.68,1.31-6.77,3.54-9.6,6.11-3.24,2.94-5.19,6.76-5.48,11.09-.37,5.58-.05,11.2-.45,16.78-.17,2.35-.93,4.94-2.25,6.86-2.41,3.51-5.24,6.79-8.25,9.82-2.31,2.32-2.6,4.72-1.91,7.64.42,1.77,1.14,2.6,3.15,2.58,10.98-.1,21.97-.05,32.95-.05s22.23,0,33.34-.02c.74,0,1.67-.04,2.17-.47,1.49-1.27,1.73-6.4.47-7.91-2.83-3.38-5.61-6.82-8.57-10.08Z" fill="none" stroke="#f6eeff" stroke-miterlimit="10"/></svg>